<mxfile host="app.diagrams.net" modified="2020-06-18T16:19:49.144Z" agent="5.0 (Macintosh; Intel Mac OS X 10_13_6) AppleWebKit/537.36 (KHTML, like Gecko) Chrome/83.0.4103.61 Safari/537.36" etag="mUhg5RSp-mKURFzs3d7J" version="13.2.6" type="github">
  <diagram id="KUyJlHc8OwFvyXzkgC3i" name="Page-1">
    <mxGraphModel dx="905" dy="575" grid="1" gridSize="10" guides="1" tooltips="1" connect="1" arrows="1" fold="1" page="1" pageScale="1" pageWidth="850" pageHeight="1100" math="0" shadow="0">
      <root>
        <mxCell id="0" />
        <mxCell id="1" parent="0" />
        <UserObject label="Atlas Routing" lucidchartObjectId="bEX4JIYKa6h4" id="NMrqR_Zz4m3j0QqmHzo1-1">
          <mxCell style="html=1;whiteSpace=wrap;;fontSize=11;fontColor=#000000;spacing=3;strokeOpacity=100;" parent="1" vertex="1">
            <mxGeometry x="96" y="144" width="72" height="36" as="geometry" />
          </mxCell>
        </UserObject>
        <UserObject label="MyShip" lucidchartObjectId="wEX41EIU4N9i" id="NMrqR_Zz4m3j0QqmHzo1-2">
          <mxCell style="html=1;whiteSpace=wrap;;fontSize=11;fontColor=#000000;spacing=3;strokeOpacity=100;" parent="1" vertex="1">
            <mxGeometry x="96" y="300" width="72" height="72" as="geometry" />
          </mxCell>
        </UserObject>
        <UserObject label="Atlas OnPrem" lucidchartObjectId="IEX4KEZdwLKC" id="NMrqR_Zz4m3j0QqmHzo1-3">
          <mxCell style="html=1;whiteSpace=wrap;;fontSize=11;fontColor=#000000;spacing=3;strokeOpacity=100;" parent="1" vertex="1">
            <mxGeometry x="96" y="384" width="72" height="72" as="geometry" />
          </mxCell>
        </UserObject>
        <UserObject label="" lucidchartObjectId="IGX4GxObyiO1" id="NMrqR_Zz4m3j0QqmHzo1-4">
          <mxCell style="html=1;jettySize=18;fontSize=11;strokeOpacity=100;dashed=1;rounded=1;arcSize=0;edgeStyle=elbowEdgeStyle;startArrow=none;;endArrow=none;;" parent="1" edge="1">
            <mxGeometry width="100" height="100" relative="1" as="geometry">
              <Array as="points" />
              <mxPoint x="420" y="84" as="sourcePoint" />
              <mxPoint x="420" y="492" as="targetPoint" />
            </mxGeometry>
          </mxCell>
        </UserObject>
        <UserObject label="Connectship" lucidchartObjectId="3OX4M71iSRrM" id="NMrqR_Zz4m3j0QqmHzo1-5">
          <mxCell style="html=1;whiteSpace=wrap;strokeColor=none;shape=mxgraph.mscae.enterprise.windows_server;fontSize=11;spacing=0;strokeOpacity=100;fillColor=#00188f;" parent="1" vertex="1">
            <mxGeometry x="552" y="132" width="56" height="72" as="geometry" />
          </mxCell>
        </UserObject>
        <UserObject label="Connectship" lucidchartObjectId="ePX4SXx5BRlQ" id="NMrqR_Zz4m3j0QqmHzo1-6">
          <mxCell style="html=1;whiteSpace=wrap;strokeColor=none;shape=mxgraph.mscae.enterprise.windows_server;fontSize=11;spacing=0;strokeOpacity=100;fillColor=#00188f;" parent="1" vertex="1">
            <mxGeometry x="528" y="144" width="56" height="72" as="geometry" />
          </mxCell>
        </UserObject>
        <UserObject label="Common Shipping Service" lucidchartObjectId="fTX4VOmApJqM" id="NMrqR_Zz4m3j0QqmHzo1-7">
          <mxCell style="html=1;whiteSpace=wrap;;fontSize=11;fontColor=#000000;spacing=3;strokeOpacity=100;" parent="1" vertex="1">
            <mxGeometry x="228" y="216" width="144" height="156" as="geometry" />
          </mxCell>
        </UserObject>
        <UserObject label="" lucidchartObjectId="7TX4vBWcP8vE" id="NMrqR_Zz4m3j0QqmHzo1-8">
          <mxCell style="html=1;jettySize=18;fontSize=11;strokeOpacity=100;rounded=1;arcSize=0;edgeStyle=orthogonalEdgeStyle;startArrow=none;;endArrow=block;endFill=1;;exitX=1.0083333333333329;exitY=0.5;exitPerimeter=1;entryX=-0.004166666666666667;entryY=0.5;entryPerimeter=1;" parent="1" source="NMrqR_Zz4m3j0QqmHzo1-1" target="NMrqR_Zz4m3j0QqmHzo1-7" edge="1">
            <mxGeometry width="100" height="100" relative="1" as="geometry">
              <Array as="points" />
            </mxGeometry>
          </mxCell>
        </UserObject>
        <UserObject label="" lucidchartObjectId="nUX4ldHZIrAf" id="NMrqR_Zz4m3j0QqmHzo1-9">
          <mxCell style="html=1;jettySize=18;fontSize=11;strokeOpacity=100;rounded=1;arcSize=0;edgeStyle=orthogonalEdgeStyle;startArrow=none;;endArrow=block;endFill=1;;exitX=1.0083333333333329;exitY=0.5;exitPerimeter=1;entryX=-0.004166666666666667;entryY=0.5;entryPerimeter=1;" parent="1" source="NMrqR_Zz4m3j0QqmHzo1-3" target="NMrqR_Zz4m3j0QqmHzo1-7" edge="1">
            <mxGeometry width="100" height="100" relative="1" as="geometry">
              <Array as="points" />
            </mxGeometry>
          </mxCell>
        </UserObject>
        <UserObject label="Connectship" lucidchartObjectId="MUX4IPBvc9~J" id="NMrqR_Zz4m3j0QqmHzo1-10">
          <mxCell style="html=1;whiteSpace=wrap;;fontSize=11;fontColor=#000000;spacing=3;strokeOpacity=100;" parent="1" vertex="1">
            <mxGeometry x="300" y="216" width="60" height="54" as="geometry" />
          </mxCell>
        </UserObject>
        <UserObject label="Proship" lucidchartObjectId="rVX43gsN0cnu" id="NMrqR_Zz4m3j0QqmHzo1-11">
          <mxCell style="html=1;whiteSpace=wrap;;fontSize=11;fontColor=#000000;spacing=3;strokeOpacity=100;" parent="1" vertex="1">
            <mxGeometry x="300" y="318" width="60" height="54" as="geometry" />
          </mxCell>
        </UserObject>
        <UserObject label="ProSHIP" lucidchartObjectId="WWX4ANCtPW.2" id="NMrqR_Zz4m3j0QqmHzo1-12">
          <mxCell style="html=1;whiteSpace=wrap;strokeColor=none;shape=mxgraph.mscae.enterprise.windows_server;fontSize=11;spacing=0;strokeOpacity=100;fillColor=#00188f;" parent="1" vertex="1">
            <mxGeometry x="540" y="348" width="56" height="72" as="geometry" />
          </mxCell>
        </UserObject>
        <UserObject label="PROSHIP" lucidchartObjectId="WWX4XYQtejk5" id="NMrqR_Zz4m3j0QqmHzo1-13">
          <mxCell style="html=1;whiteSpace=wrap;strokeColor=none;shape=mxgraph.mscae.enterprise.windows_server;fontSize=11;spacing=0;strokeOpacity=100;fillColor=#00188f;" parent="1" vertex="1">
            <mxGeometry x="564" y="324" width="56" height="72" as="geometry" />
          </mxCell>
        </UserObject>
        <UserObject label="" lucidchartObjectId="CXX4LetW_sAF" id="NMrqR_Zz4m3j0QqmHzo1-14">
          <mxCell style="html=1;jettySize=18;fontSize=11;strokeOpacity=100;rounded=1;arcSize=0;edgeStyle=orthogonalEdgeStyle;startArrow=none;;endArrow=block;endFill=1;;exitX=1.01;exitY=0.5;exitPerimeter=1;entryX=0.000004243910880085229;entryY=0.5349997029262388;entryPerimeter=1;" parent="1" source="NMrqR_Zz4m3j0QqmHzo1-11" target="NMrqR_Zz4m3j0QqmHzo1-12" edge="1">
            <mxGeometry width="100" height="100" relative="1" as="geometry">
              <Array as="points" />
            </mxGeometry>
          </mxCell>
        </UserObject>
        <UserObject label="On Prem" lucidchartObjectId="3XX4bUbFI8Y_" id="NMrqR_Zz4m3j0QqmHzo1-15">
          <mxCell style="html=1;whiteSpace=wrap;shape=document;fontSize=11;fontColor=#000000;spacing=3;strokeOpacity=100;" parent="1" vertex="1">
            <mxGeometry x="608" y="264" width="60" height="24" as="geometry" />
          </mxCell>
        </UserObject>
        <UserObject label="Atlas Printing" lucidchartObjectId="6N_42Cze0PTz" id="NMrqR_Zz4m3j0QqmHzo1-16">
          <mxCell style="html=1;whiteSpace=wrap;;fontSize=11;fontColor=#000000;spacing=3;strokeOpacity=100;" parent="1" vertex="1">
            <mxGeometry x="96" y="192" width="72" height="36" as="geometry" />
          </mxCell>
        </UserObject>
        <UserObject label="Atlas Manifesting" lucidchartObjectId="dO_4ddagEXH2" id="NMrqR_Zz4m3j0QqmHzo1-17">
          <mxCell style="html=1;whiteSpace=wrap;;fontSize=11;fontColor=#000000;spacing=3;strokeOpacity=100;" parent="1" vertex="1">
            <mxGeometry x="96" y="246" width="72" height="36" as="geometry" />
          </mxCell>
        </UserObject>
        <UserObject label="" lucidchartObjectId="SO_4oMH4sIoQ" id="NMrqR_Zz4m3j0QqmHzo1-18">
          <mxCell style="html=1;jettySize=18;fontSize=11;strokeOpacity=100;rounded=1;arcSize=0;edgeStyle=orthogonalEdgeStyle;startArrow=none;;endArrow=block;endFill=1;;exitX=1.0083333333333329;exitY=0.5;exitPerimeter=1;entryX=-0.004166666666666667;entryY=0.5;entryPerimeter=1;" parent="1" source="NMrqR_Zz4m3j0QqmHzo1-16" target="NMrqR_Zz4m3j0QqmHzo1-7" edge="1">
            <mxGeometry width="100" height="100" relative="1" as="geometry">
              <Array as="points" />
            </mxGeometry>
          </mxCell>
        </UserObject>
        <UserObject label="" lucidchartObjectId="sP_4pvL~csFc" id="NMrqR_Zz4m3j0QqmHzo1-19">
          <mxCell style="html=1;jettySize=18;fontSize=11;strokeOpacity=100;rounded=1;arcSize=0;edgeStyle=orthogonalEdgeStyle;startArrow=none;;endArrow=block;endFill=1;;exitX=1.0083333333333329;exitY=0.5;exitPerimeter=1;entryX=-0.004166666666666667;entryY=0.5;entryPerimeter=1;" parent="1" source="NMrqR_Zz4m3j0QqmHzo1-17" target="NMrqR_Zz4m3j0QqmHzo1-7" edge="1">
            <mxGeometry width="100" height="100" relative="1" as="geometry">
              <Array as="points" />
            </mxGeometry>
          </mxCell>
        </UserObject>
        <UserObject label="" lucidchartObjectId="yP_4x2atOVW0" id="NMrqR_Zz4m3j0QqmHzo1-20">
          <mxCell style="html=1;jettySize=18;fontSize=11;strokeOpacity=100;rounded=1;arcSize=0;edgeStyle=orthogonalEdgeStyle;startArrow=none;;endArrow=block;endFill=1;;exitX=1.0083333333333329;exitY=0.5;exitPerimeter=1;entryX=-0.004166666666666667;entryY=0.5;entryPerimeter=1;" parent="1" source="NMrqR_Zz4m3j0QqmHzo1-2" target="NMrqR_Zz4m3j0QqmHzo1-7" edge="1">
            <mxGeometry width="100" height="100" relative="1" as="geometry">
              <Array as="points" />
            </mxGeometry>
          </mxCell>
        </UserObject>
        <UserObject label="On Prem" lucidchartObjectId="RS_4NUpT8Wq1" id="NMrqR_Zz4m3j0QqmHzo1-21">
          <mxCell style="html=1;whiteSpace=wrap;shape=document;fontSize=11;fontColor=#000000;spacing=3;strokeOpacity=100;" parent="1" vertex="1">
            <mxGeometry x="108" y="468" width="60" height="24" as="geometry" />
          </mxCell>
        </UserObject>
        <UserObject label="" lucidchartObjectId="8S_4d7-csNgQ" id="NMrqR_Zz4m3j0QqmHzo1-22">
          <mxCell style="html=1;jettySize=18;fontSize=11;strokeOpacity=100;dashed=1;dashPattern=1 4;rounded=1;arcSize=0;edgeStyle=orthogonalEdgeStyle;startArrow=none;;endArrow=block;endFill=1;;exitX=-0.01;exitY=0.5;exitPerimeter=1;entryX=-0.00833333333333327;entryY=0.8509161373977254;entryPerimeter=1;" parent="1" source="NMrqR_Zz4m3j0QqmHzo1-21" target="NMrqR_Zz4m3j0QqmHzo1-2" edge="1">
            <mxGeometry width="100" height="100" relative="1" as="geometry">
              <Array as="points">
                <mxPoint x="71" y="480" />
                <mxPoint x="71" y="361" />
              </Array>
            </mxGeometry>
          </mxCell>
        </UserObject>
        <UserObject label="" lucidchartObjectId="hT_4gmnuGr8E" id="NMrqR_Zz4m3j0QqmHzo1-23">
          <mxCell style="html=1;jettySize=18;fontSize=11;strokeOpacity=100;dashed=1;dashPattern=1 4;rounded=1;arcSize=0;edgeStyle=orthogonalEdgeStyle;startArrow=none;;endArrow=block;endFill=1;;exitX=-0.01;exitY=0.5;exitPerimeter=1;entryX=-0.00833333333333333;entryY=0.5;entryPerimeter=1;" parent="1" source="NMrqR_Zz4m3j0QqmHzo1-21" target="NMrqR_Zz4m3j0QqmHzo1-3" edge="1">
            <mxGeometry width="100" height="100" relative="1" as="geometry">
              <Array as="points" />
            </mxGeometry>
          </mxCell>
        </UserObject>
        <UserObject label="Google Cloud" lucidchartObjectId="pT_4k9M6ElSg" id="NMrqR_Zz4m3j0QqmHzo1-24">
          <mxCell style="html=1;whiteSpace=wrap;shape=document;fontSize=11;fontColor=#000000;spacing=3;strokeOpacity=100;" parent="1" vertex="1">
            <mxGeometry x="192" y="101" width="60" height="38" as="geometry" />
          </mxCell>
        </UserObject>
        <UserObject label="" lucidchartObjectId="GT_4jtW32NE0" id="NMrqR_Zz4m3j0QqmHzo1-25">
          <mxCell style="html=1;jettySize=18;fontSize=11;strokeOpacity=100;dashed=1;dashPattern=1 4;rounded=1;arcSize=0;edgeStyle=orthogonalEdgeStyle;startArrow=none;;endArrow=block;endFill=1;;exitX=1.01;exitY=0.503169386772557;exitPerimeter=1;entryX=0.7888888888888886;entryY=-0.0038461538461538464;entryPerimeter=1;" parent="1" source="NMrqR_Zz4m3j0QqmHzo1-24" target="NMrqR_Zz4m3j0QqmHzo1-7" edge="1">
            <mxGeometry width="100" height="100" relative="1" as="geometry">
              <Array as="points" />
            </mxGeometry>
          </mxCell>
        </UserObject>
        <UserObject label="" lucidchartObjectId="LT_4g2NEf5Gs" id="NMrqR_Zz4m3j0QqmHzo1-26">
          <mxCell style="html=1;jettySize=18;fontSize=11;strokeOpacity=100;dashed=1;dashPattern=1 4;rounded=1;arcSize=0;edgeStyle=orthogonalEdgeStyle;startArrow=none;;endArrow=block;endFill=1;;exitX=-0.01;exitY=0.503169386772557;exitPerimeter=1;entryX=0.5;entryY=-0.016666666666666666;entryPerimeter=1;" parent="1" source="NMrqR_Zz4m3j0QqmHzo1-24" target="NMrqR_Zz4m3j0QqmHzo1-1" edge="1">
            <mxGeometry width="100" height="100" relative="1" as="geometry">
              <Array as="points" />
            </mxGeometry>
          </mxCell>
        </UserObject>
        <UserObject label="" lucidchartObjectId="ST_4UiufB.aZ" id="NMrqR_Zz4m3j0QqmHzo1-27">
          <mxCell style="html=1;jettySize=18;fontSize=11;strokeOpacity=100;dashed=1;dashPattern=1 4;rounded=1;arcSize=0;edgeStyle=orthogonalEdgeStyle;startArrow=none;;endArrow=block;endFill=1;;exitX=-0.01;exitY=0.503169386772557;exitPerimeter=1;entryX=-0.008333333333333389;entryY=0.670038894192667;entryPerimeter=1;" parent="1" source="NMrqR_Zz4m3j0QqmHzo1-24" target="NMrqR_Zz4m3j0QqmHzo1-16" edge="1">
            <mxGeometry width="100" height="100" relative="1" as="geometry">
              <Array as="points" />
            </mxGeometry>
          </mxCell>
        </UserObject>
        <UserObject label="" lucidchartObjectId="0T_4ElIzaHc0" id="NMrqR_Zz4m3j0QqmHzo1-28">
          <mxCell style="html=1;jettySize=18;fontSize=11;strokeOpacity=100;dashed=1;dashPattern=1 4;rounded=1;arcSize=0;edgeStyle=orthogonalEdgeStyle;startArrow=none;;endArrow=block;endFill=1;;exitX=-0.01;exitY=0.503169386772557;exitPerimeter=1;entryX=-0.00833333333333333;entryY=0.5;entryPerimeter=1;" parent="1" source="NMrqR_Zz4m3j0QqmHzo1-24" target="NMrqR_Zz4m3j0QqmHzo1-17" edge="1">
            <mxGeometry width="100" height="100" relative="1" as="geometry">
              <Array as="points" />
            </mxGeometry>
          </mxCell>
        </UserObject>
        <UserObject label="" lucidchartObjectId="iW_4vqCDnbbQ" id="NMrqR_Zz4m3j0QqmHzo1-29">
          <mxCell style="html=1;jettySize=18;fontSize=11;strokeOpacity=100;dashed=1;dashPattern=1 4;rounded=1;arcSize=0;edgeStyle=orthogonalEdgeStyle;startArrow=none;;endArrow=block;endFill=1;;exitX=-0.01;exitY=0.5;exitPerimeter=1;entryX=0.13584039169436365;entryY=-5.921189464667501e-17;entryPerimeter=1;" parent="1" source="NMrqR_Zz4m3j0QqmHzo1-15" target="NMrqR_Zz4m3j0QqmHzo1-13" edge="1">
            <mxGeometry width="100" height="100" relative="1" as="geometry">
              <Array as="points" />
            </mxGeometry>
          </mxCell>
        </UserObject>
        <UserObject label="" lucidchartObjectId="rW_4pQoD3oD3" id="NMrqR_Zz4m3j0QqmHzo1-30">
          <mxCell style="html=1;jettySize=18;fontSize=11;strokeOpacity=100;dashed=1;dashPattern=1 4;rounded=1;arcSize=0;edgeStyle=orthogonalEdgeStyle;startArrow=none;;endArrow=block;endFill=1;;exitX=-0.01;exitY=0.5027484121931763;exitPerimeter=1;entryX=0.48028282828282826;entryY=0.988;entryPerimeter=1;" parent="1" source="NMrqR_Zz4m3j0QqmHzo1-15" target="NMrqR_Zz4m3j0QqmHzo1-6" edge="1">
            <mxGeometry width="100" height="100" relative="1" as="geometry">
              <Array as="points" />
            </mxGeometry>
          </mxCell>
        </UserObject>
        <UserObject label="Cloud SQL" lucidchartObjectId="hY_4jxcrgZiE" id="NMrqR_Zz4m3j0QqmHzo1-31">
          <mxCell style="html=1;whiteSpace=wrap;html=1;verticalLabelPosition=bottom;verticalAlign=top;strokeColor=none;shape=mxgraph.gcp2.cloud_sql;fontSize=11;spacing=0;fillOpacity=100;fillColor=#0E62C2;" parent="1" vertex="1">
            <mxGeometry x="239" y="408" width="77" height="68" as="geometry" />
          </mxCell>
        </UserObject>
        <UserObject label="" lucidchartObjectId="zY_4-Rthp5-." id="NMrqR_Zz4m3j0QqmHzo1-32">
          <mxCell style="html=1;jettySize=18;fontSize=11;strokeOpacity=100;rounded=1;arcSize=0;edgeStyle=orthogonalEdgeStyle;startArrow=none;;endArrow=none;;exitX=0.3305555555555555;exitY=1.0038461538461538;exitPerimeter=1;entryX=0.4791666666666665;entryY=6.244333735478514e-17;entryPerimeter=1;" parent="1" source="NMrqR_Zz4m3j0QqmHzo1-7" target="NMrqR_Zz4m3j0QqmHzo1-31" edge="1">
            <mxGeometry width="100" height="100" relative="1" as="geometry">
              <Array as="points" />
            </mxGeometry>
          </mxCell>
        </UserObject>
        <UserObject label="" lucidchartObjectId="h0_4PVFjvIoh" id="NMrqR_Zz4m3j0QqmHzo1-33">
          <mxCell style="html=1;jettySize=18;fontSize=11;strokeOpacity=100;rounded=1;arcSize=0;edgeStyle=orthogonalEdgeStyle;startArrow=none;;endArrow=block;endFill=1;;exitX=1.01;exitY=0.6303030303030301;exitPerimeter=1;entryX=0.000004243910880085229;entryY=0.5349997029262383;entryPerimeter=1;" parent="1" source="NMrqR_Zz4m3j0QqmHzo1-10" target="NMrqR_Zz4m3j0QqmHzo1-6" edge="1">
            <mxGeometry width="100" height="100" relative="1" as="geometry">
              <Array as="points" />
            </mxGeometry>
          </mxCell>
        </UserObject>
      </root>
    </mxGraphModel>
  </diagram>
</mxfile>
